/* XPM */
static const char *mirror_xpm[] = {
"16 16 2 1",
"0 c None",
"1 c #C60000",
"0000000000000000",
"0000000000000000",
"0000000000000000",
"0100000000000000",
"0111100000000000",
"0111111100000000",
"0111111111100000",
"0111111111111100",
"0111111111111100",
"0111111111100000",
"0111111100000000",
"0111100000000000",
"0100000000000000",
"0000000000000000",
"0000000000000000",
"0000000000000000"
};
