/* XPM */
static const char *StackBuilder_xpm[] = {
/* columns rows colors chars-per-pixel */
"32 32 56 1",
". c #1E9DBF",
"p c #85951A",
"8 c #AAD11F",
"3 c #89B837",
"z c #6B4511",
"% c #175E7E",
", c #1E8BB1",
"d c #607617",
"0 c #82A81D",
"w c #87A91C",
"2 c #A6D128",
"l c #7D9E1B",
"j c #8AB01D",
"& c #1E82AA",
"v c #770F0A",
"; c #9FCD2F",
"y c #A4CB1F",
"r c #5F7D18",
"4 c #8BB11D",
"g c #97380F",
"o c #1A7999",
"q c #93B91E",
"9 c #81A31B",
"X c #1E93B7",
"h c #898218",
"  c None",
"1 c #8FBC34",
"+ c #1E84AB",
": c #67AB64",
"> c #2886A0",
"x c #75140A",
"u c #8DB31D",
"N c #81100A",
"b c #678719",
"6 c #9DCC31",
"m c #741B0B",
"= c #1E9BBD",
"$ c #176586",
"a c #A5CB1F",
"< c #3D7C66",
"# c #1B85A6",
"f c #9F130B",
"@ c #1E92B6",
"* c #1E8FB4",
"c c #87AD1D",
"k c #9EC41E",
"7 c #55A075",
"- c #B0D720",
"s c #82A31B",
"i c #8ABA3A",
"M c #81180B",
"n c #685313",
"5 c #A9D01F",
"e c #648218",
"t c #90B61D",
"O c #1F81A9",
/* pixels */
"               ...              ",
"             .......            ",
"           ...........          ",
"         ...............        ",
"       ...................      ",
"     .......................    ",
"   ...........................  ",
" X............................o ",
" O+@........................#$% ",
" OOO+@....................#$%%% ",
" OOOOO+@................#$%%%%% ",
" OOOOOOO&*=...........#$%%%%%%% ",
" OOOOOOOOO&*=.......#$%%%%%%%%% ",
"   OOOOOOOOO&*=...#$%%%%%%%%%   ",
"    -;:>OOOOOO&,#$%%%%%%%<1-    ",
"  -----2:OOOOOOO%%%%%%%<3-----  ",
" 45------67OOOOO%%%%%<3------89 ",
" 00q8------67OOO%%%<3------8wer ",
" 0000ty------67O%<3------8werrr ",
" 000000uy------6i------8werrrrr ",
" p0000000uy----------aserrrrrrd ",
" fgh0000000jk------alrrrrrrrdzx ",
" fffgh0000000ck--alrrrrrrrdzxvv ",
" fffffgh0000000c9rrrrrrrdzxvvvv ",
" fffffffgh000000brrrrrdzxvvvvvv ",
"  ffffffffgh0000brrrrzxvvvvvvv  ",
"    ffffffffgh00brrnmvvvvvvvv   ",
"      ffffffffghbnmvvvvvvvv     ",
"        ffffffffMvvvvvvvv       ",
"          ffffffNvvvvvv         ",
"            ffffNvvvv           ",
"              ffNvv             "
};
